#!OML:ASF H:\BabyWalks\Project 1\Capture day 1\Session 1\baby.ASF
:FULLY-SPECIFIED
:DEGREES
1001
root -11.6676 18.1354 -0.584837 -403.291 84.7335 -416.153
lowerback 17.8251 0.183501 3.85149
upperback 0.639853 1.18438 0.859641
thorax -9.27098 0.449206 -1.56287
lowerneck 2.63772 0.710336 7.3268
upperneck -24.1795 1.14695 -6.35353
head -7.76435 0.792749 -3.49572
rclavicle -1.66979e-014 1.02871e-014
rhumerus -48.6138 14.5062 -88.3212
rradius 64.2825
rwrist -1.65441
rhand -22.2438 -10.1539
rfingers 7.12502
rthumb 4.17339 -40.0928
lclavicle -1.66979e-014 1.02871e-014
lhumerus -72.9083 -21.234 92.8188
lradius 58.0342
lwrist 4.59616
lhand 26.2496 17.6234
lfingers 7.12502
lthumb 50.3059 38.6841
rfemur 4.33666 11.167 22.5301
rtibia 6.38974
rfoot -5.25736 -0.16443
rtoes -24.5875
lfemur -33.4272 -4.57018 -7.46351
ltibia 26.866
lfoot -20.6444 2.58612
ltoes -13.9829
1002
root -11.4939 18.1237 -0.596082 -402.737 84.4104 -415.455
lowerback 17.6818 0.210312 3.77721
upperback 0.638934 1.18055 0.710964
thorax -9.18969 0.447578 -1.67871
lowerneck 2.62753 0.632055 7.17898
upperneck -24.0424 1.05682 -6.14667
head -7.72743 0.740578 -3.39007
rclavicle -6.70898e-015 1.12313e-014
rhumerus -48.6465 14.8153 -88.7172
rradius 65.1614
rwrist -2.16668
rhand -22.122 -9.85547
rfingers 7.12502
rthumb 4.29092 -39.792
lclavicle -6.70898e-015 1.12313e-014
lhumerus -73.1739 -21.5311 92.7447
lradius 58.2266
lwrist 4.84717
lhand 26.7186 17.9097
lfingers 7.12502
lthumb 50.7342 38.7382
rfemur 4.8768 10.948 22.6871
rtibia 6.5954
rfoot -4.85423 0.467604
rtoes -24.8131
lfemur -33.3757 -4.65716 -7.37834
ltibia 26.5398
lfoot -20.4558 3.20836
ltoes -14.3698
1003
root -11.3206 18.1055 -0.60707 -401.99 84.0445 -414.546
lowerback 17.5442 0.250126 3.69358
upperback 0.651308 1.19214 0.554348
thorax -9.09616 0.454163 -1.80143
lowerneck 2.63625 0.553844 7.00871
upperneck -23.9558 0.979437 -5.88252
head -7.7106 0.692186 -3.2643
rclavicle -1.93815e-014 -7.15625e-015
rhumerus -48.6788 15.1009 -89.1065
rradius 65.9453
rwrist -2.66071
rhand -21.9937 -9.62354
rfingers 7.12502
rthumb 4.41487 -39.5575
lclavicle -1.93815e-014 -7.15625e-015
lhumerus -73.3452 -21.8484 92.6294
lradius 58.3995
lwrist 5.06976
lhand 27.0975 18.1349
lfingers 7.12502
lthumb 51.0795 38.7718
rfemur 5.07805 10.7781 22.8501
rtibia 7.53276
rfoot -4.77061 1.07765
rtoes -24.9676
lfemur -33.2427 -4.65525 -7.31487
ltibia 26.3571
lfoot -20.1425 3.686
ltoes -15.0578
1004
root -11.1478 18.0807 -0.618004 -401.081 83.6405 -413.448
lowerback 17.4172 0.303605 3.59316
upperback 0.67969 1.21898 0.390186
thorax -8.9903 0.46931 -1.92627
lowerneck 2.67432 0.479356 6.81394
upperneck -23.9271 0.922777 -5.55013
head -7.7177 0.65067 -3.11514
rclavicle -2.00773e-014 -3.97569e-015
rhumerus -48.7228 15.3683 -89.49
rradius 66.6402
rwrist -3.12912
rhand -21.8869 -9.45461
rfingers 7.12502
rthumb 4.51797 -39.3864
lclavicle -2.00773e-014 -3.97569e-015
lhumerus -73.4181 -22.182 92.4703
lradius 58.5474
lwrist 5.27447
lhand 27.3721 18.2991
lfingers 7.12502
lthumb 51.3296 38.7947
rfemur 5.06221 10.655 23.0072
rtibia 8.96407
rfoot -4.86396 1.67501
rtoes -25.048
lfemur -33.0234 -4.60187 -7.25675
ltibia 26.3227
lfoot -19.5344 3.96309
ltoes -15.8067
1005
root -10.9756 18.0502 -0.628997 -400.138 83.2076 -412.282
lowerback 17.3106 0.363338 3.47752
upperback 0.725708 1.25245 0.220593
thorax -8.87636 0.488892 -2.04979
lowerneck 2.74522 0.413708 6.59484
upperneck -23.9593 0.895187 -5.14622
head -7.74989 0.619659 -2.94207
rclavicle -9.14409e-015 2.14687e-014
rhumerus -48.7764 15.6244 -89.8681
rradius 67.2384
rwrist -3.55236
rhand -21.8051 -9.3585
rfingers 7.12502
rthumb 4.59694 -39.2886
lclavicle -9.14409e-015 2.14687e-014
lhumerus -73.3864 -22.5122 92.2562
lradius 58.6629
lwrist 5.44132
lhand 27.5266 18.3778
lfingers 7.12502
lthumb 51.4701 38.793
rfemur 4.938 10.5649 23.1525
rtibia 10.6748
rfoot -4.99908 2.26839
rtoes -25.037
lfemur -32.7264 -4.45567 -7.22159
ltibia 26.458
lfoot -18.5574 3.9517
ltoes -16.0008
